<?xml version="1.0" standalone="no"?>
<!DOCTYPE svg PUBLIC "-//W3C//DTD SVG 20010904//EN"
 "http://www.w3.org/TR/2001/REC-SVG-20010904/DTD/svg10.dtd">
<svg version="1.0" xmlns="http://www.w3.org/2000/svg"
 width="700.000000pt" height="700.000000pt" viewBox="0 0 700.000000 700.000000"
 preserveAspectRatio="xMidYMid meet">
<metadata>
Created by potrace 1.11, written by Peter Selinger 2001-2013
</metadata>
<g transform="translate(0.000000,700.000000) scale(0.100000,-0.100000)"
fill="#000000" stroke="none">
<path d="M453 6662 l-23 -3 1 -2307 1 -2307 20 65 c140 462 278 744 517 1055
36 47 61 89 62 105 0 14 0 589 1 1278 0 913 3 1252 11 1249 6 -2 33 -59 59
-128 27 -68 62 -155 78 -194 16 -38 64 -158 106 -265 42 -107 82 -208 89 -225
7 -16 106 -266 220 -555 115 -289 210 -528 212 -532 2 -4 54 20 116 52 61 32
150 75 197 95 47 20 99 43 115 50 17 7 42 16 57 20 26 7 26 7 12 48 -8 23 -18
51 -24 62 -5 11 -84 209 -175 440 -91 231 -207 524 -257 650 -50 127 -99 250
-108 275 -10 25 -105 268 -212 540 -108 272 -198 503 -201 513 -4 10 -17 17
-34 18 -125 2 -823 3 -840 1z"/>
<path d="M5690 6660 c-5 -3 -80 -185 -166 -405 -86 -220 -188 -479 -226 -575
-38 -96 -87 -220 -108 -275 -67 -172 -180 -459 -375 -955 -65 -162 -119 -302
-121 -310 -4 -11 21 -25 95 -53 54 -21 168 -73 253 -115 l154 -77 27 65 c14
36 73 184 131 330 57 146 170 432 251 635 80 204 191 484 246 622 56 139 105
255 110 258 5 4 9 -495 9 -1279 0 -769 4 -1287 9 -1290 35 -22 215 -288 302
-446 115 -210 243 -537 275 -704 2 -10 6 -21 9 -24 3 -3 5 1032 5 2299 l0
2305 -436 -1 c-240 0 -440 -2 -444 -5z"/>
<path d="M2425 3452 c-121 -64 -198 -111 -291 -180 l-61 -45 17 -46 c21 -56
97 -248 109 -276 5 -11 26 -63 46 -115 20 -52 43 -108 50 -125 7 -16 126 -313
263 -660 137 -346 303 -763 367 -925 64 -162 123 -308 130 -325 7 -16 48 -118
90 -225 l77 -196 284 0 284 1 19 50 c29 77 151 387 161 410 5 11 32 79 60 150
28 72 55 138 60 147 6 10 10 22 10 28 0 6 9 29 19 53 11 23 94 231 185 462
331 842 496 1260 505 1280 5 11 35 85 65 163 l57 144 -23 20 c-81 73 -447 284
-462 267 -2 -2 -61 -150 -131 -329 -208 -527 -399 -1015 -459 -1170 -31 -80
-61 -155 -66 -167 -15 -34 -24 -58 -63 -158 -111 -285 -220 -560 -222 -563 -1
-1 -26 57 -55 130 -29 73 -58 147 -65 163 -7 17 -54 136 -104 265 -51 129 -96
244 -101 255 -5 11 -54 135 -109 275 -55 140 -166 421 -246 623 -80 203 -145
371 -145 373 0 3 -11 29 -24 57 -13 29 -29 70 -36 92 -7 22 -15 45 -19 50 -3
6 -13 30 -22 55 -8 25 -22 46 -30 47 -8 2 -63 -23 -124 -55z"/>
</g>
</svg>
