<svg id="Laag_1" data-name="Laag 1" xmlns="http://www.w3.org/2000/svg" xmlns:xlink="http://www.w3.org/1999/xlink" viewBox="0 0 227.78 227.78"><defs><style>.cls-1{fill:#232323;}.cls-2{clip-path:url(#clip-path);}.cls-3{fill:#40739f;}.cls-4{fill:#394654;}.cls-15,.cls-18,.cls-5,.cls-6{fill:none;stroke-linecap:round;stroke-miterlimit:10;}.cls-5,.cls-6{stroke:#315a84;}.cls-6{stroke-width:2px;}.cls-7{fill:#315a84;}.cls-8{fill:#cbaf8e;}.cls-9{fill:#e5d0b7;}.cls-10{fill:#fcf7f2;}.cls-11{fill:#cb9191;}.cls-12{fill:#6c5e57;}.cls-13{fill:#434b5b;}.cls-14{fill:#dcabab;}.cls-15{stroke:#394654;}.cls-16{fill:#e5dacc;}.cls-17{fill:#bb7d7d;}.cls-18{stroke:#cbaf8e;stroke-width:1.5px;}</style><clipPath id="clip-path"><circle class="cls-1" cx="113.89" cy="113.89" r="113.89"/></clipPath></defs><title>Tekengebied 1</title><circle class="cls-1" cx="113.89" cy="113.89" r="113.89"/><g class="cls-2"><polyline class="cls-3" points="148.07 172.26 204.13 185.06 197.53 262.16 30.38 262.16 24.33 187.02 79.84 172.26"/><circle class="cls-4" cx="112.75" cy="197.12" r="2.46"/><path class="cls-5" d="M109.42,201.7h6.27s7.66-.67,12-6"/><path class="cls-6" d="M107,198.33c-.87,3.38,0,4.44,0,12.16V229"/><path class="cls-7" d="M148.9,173.77a25.49,25.49,0,0,0-1.15-5.74c-.89-2.62-3.14-8.71-3.16-8.77l-.06-.13a5,5,0,0,0-3.74-2.36l-.14,1.08H86.74l.11-1.08c-2.57-.26-4,2.1-4.19,2.5h0c0,.06-2.27,6.15-3.16,8.77a25.25,25.25,0,0,0-1.15,5.81v32.29a3.41,3.41,0,0,0,5,3l21.15-15.73s4-3.41,7.18-1.07l.29.22h3.33l.29-.22c3.11-2.33,7,.93,7.23,1.11l21,15.6.14.09a3.41,3.41,0,0,0,5-3Z"/><line class="cls-5" x1="122.15" y1="229" x2="122.15" y2="200.08"/><path class="cls-8" d="M141.81,169.3h0l-.74-.35c-.06.12-.13.24-.19.37L87.5,170.37l-.2-.36-.73.38h0l-.73.38a31.62,31.62,0,0,0,56.7-1.12Z"/><path class="cls-9" d="M65.58,87.65s-5.76-4.58-5.56,3A16.8,16.8,0,0,0,60.93,94a15.32,15.32,0,0,1,1.79,5.51c.18,2.36.53,7.36,2.46,10.94,0,0-1,8.06,2.29,9.55s3.46,12.6,6,18.67,17.89,31.67,40.37,31.67,43.86-37.88,43.54-42,2.4-7.55,3.4-8.52,2.41-2.53,1.59-7.86c0,0,2.11-5.71,2.38-8.87s.47-7,2.36-9.72-.12-12.1-5.47-5a50.34,50.34,0,0,1-.86-9c0-4.46,12.12-50.23-40-43.6S71.31,43.25,65.58,87.65Z"/><path class="cls-10" d="M87.31,87.93c4.49,0,9.58,2.28,10.44,3.46a1.73,1.73,0,0,1,.33,1.69h0a1.41,1.41,0,0,1-1.19,1.23,6.79,6.79,0,0,0-1.88.62,12.9,12.9,0,0,1-6.35,1.72c-.43,0-.88.05-1.37.05-4.95,0-8.31-4.44-8.31-4.44C79,91.26,82.81,87.93,87.31,87.93Z"/><path class="cls-11" d="M96.9,94.31s.08-.13.28-.28a1.52,1.52,0,0,0,0-2.21C96,90.58,99.28,93,99.28,93A2.58,2.58,0,0,1,97,94.3C97,94.33,96.91,94.34,96.9,94.31Z"/><path class="cls-12" d="M84,88.51h0a13.76,13.76,0,0,1,9.24.39l0,.12.08,0a5.18,5.18,0,1,1-9.3-.48Z"/><path class="cls-10" d="M138.57,87.93c-4.49,0-9.58,2.28-10.44,3.46a1.73,1.73,0,0,0-.33,1.69h0A1.41,1.41,0,0,0,129,94.31a6.79,6.79,0,0,1,1.88.62,12.9,12.9,0,0,0,6.35,1.72c.43,0,.88.05,1.37.05,4.95,0,8.31-4.44,8.31-4.44C146.88,91.26,143.06,87.93,138.57,87.93Z"/><path class="cls-11" d="M129,94.31s-.08-.13-.28-.28a1.52,1.52,0,0,1,0-2.21c1.22-1.24-2.08,1.18-2.08,1.18a2.58,2.58,0,0,0,2.24,1.31C128.91,94.33,129,94.34,129,94.31Z"/><path class="cls-12" d="M141.84,88.51h0a13.76,13.76,0,0,0-9.24.39l0,.12-.08,0a5.18,5.18,0,1,0,9.3-.48Z"/><path class="cls-8" d="M168.05,86.92a3,3,0,0,0-2.72-1.78c-2.19,0-3.67,1.68-4.5,3-1.2-3-1.76-33-1.76-33s5.28-19.48-40.93-19.48S69,46.45,68.71,54.76c-.28,7.27-2.47,27-3,31.81a4.64,4.64,0,0,0-3.25-1.44,3,3,0,0,0-2.72,1.78c-1.09,2.16-.72,6.33,2,10.21.31,6.33.81,10.29,2,12.41a5.22,5.22,0,0,1,.85,2.07l0,.17c0,.22-1.1,5.33,1,7.86A3.85,3.85,0,0,0,68.71,121a.82.82,0,0,0,0-1.63,2.84,2.84,0,0,1-.82-.12l.5-6.09a34.34,34.34,0,0,1,.3-4.29c1.4,26.54,11.58,31.25,11.58,31.25,0-7-9.16-19.49-9.16-31.19,0-11.93,7-16,7-16l.12-.07.16-.1c9.41-8.65,18.92-1,20-.08.12.09.26.25.25.36s0,.36-1,.87a.82.82,0,1,0,.75,1.45c1.22-.63,1.86-1.38,1.91-2.23a2,2,0,0,0-.68-1.57h0l0,0-.23-.19c-1.74-1.4-12-8.87-21.91.08-.13-.51.12-1.44,1.7-3.14a9.78,9.78,0,0,1,3.68-2,26.32,26.32,0,0,1,4.42-.61,20,20,0,0,1,10.57,2.5l-.06-.05s5.08,3.38,7.81-3.56h0s-9.31-5.14-14.1-5.77L90,79.13a14.77,14.77,0,0,0-10-2.76,9.46,9.46,0,0,0-2.48.63c-1.14-.6-1.3-1.41.27-2.64v-.13l.23-.07V63.41A15.49,15.49,0,0,1,93.51,47.91a.59.59,0,0,0,0-.11A79.45,79.45,0,0,0,105,48.92c7.49,0,10.48-1.46,15.79-1.46h19.92s7.32.22,7.32,10.84,2.18,11.32,2.18,18.74l-11.91,2.74c-.74-.35-1.41-.66-2-.87-3.4-1.33-16.06,5.67-16.06,5.67h0c2.73,6.94,7.81,3.56,7.81,3.56l-.06.05a20,20,0,0,1,10.57-2.5,26.32,26.32,0,0,1,4.42.61,9.78,9.78,0,0,1,3.68,2c1.57,1.7,1.82,2.63,1.7,3.14-9.94-8.95-20.17-1.47-21.91-.08l-.23.19,0,0h0a2,2,0,0,0-.68,1.57c0,.85.69,1.6,1.91,2.23a.82.82,0,0,0,.75-1.45c-1-.51-1-.85-1-.87s.14-.27.25-.36c1.13-1,10.64-8.57,20,.08l.16.1.12.07.14.07c1.41.77,8.41,5.24,8.44,17.74-.85,11.16-9.06,22.78-9.06,29.37,0,0,10.17-4.71,11.58-31.21.06,1.12.07,2.31,0,3.59,0,0-.32,5.09.61,6.83a3.16,3.16,0,0,1-.47,0,.82.82,0,0,0,0,1.63,3.85,3.85,0,0,0,3.14-1.41c2.05-2.53,1-7.64,1-7.86l0-.16h0a5.22,5.22,0,0,1,.85-2.07c1.23-2.12,1.72-6.07,2-12.41C168.77,93.25,169.15,89.08,168.05,86.92Z"/><path class="cls-8" d="M126.71,114.79s2.67,6.85-.79,8.69a17.34,17.34,0,0,1-2,.88s0-.1,0-.15a1.45,1.45,0,0,1-1.67-1.38c-1.32.21-4.84,3-6.71,3.93-1.26.3-2.1.47-2.1.47l-3.06-1a4.45,4.45,0,0,1-.56-.52,13.09,13.09,0,0,0-3.81-2.62c-.28,1.07-1.54,1.14-2.58,1,0,.05,0,.11,0,.16-1.91-.29-6-1.79-2.73-9.49a11,11,0,0,0-2.74,6.81c0,3.9,5.47,5.51,5.47,5.51h0a10.34,10.34,0,0,0,20.46,0l.13,0s5.47-1.6,5.47-5.51A11,11,0,0,0,126.71,114.79Z"/><path class="cls-8" d="M97.9,142.5s-3.63,1-3.63,4.1,4.22,4.84,11.57,3l7.76-.44h0l7.76.44c7.36,1.82,11.57.09,11.57-3s-3.63-4.1-3.63-4.1,3.72-2.75,5.13-1.44,4,4,0,12.43-4.56,7.27-4.56,7.27.68-9-10.3-7.48-11.94,0-11.94,0-12.21-.77-8.85,8.83c0,0-4.35-3.55-7-11.07S92.61,137.33,97.9,142.5Z"/><path class="cls-13" d="M119.82,126c-.56-.38-1.65-1.61-2.14-.39s-5.37,2.59-7.25.73-2.4-.73-2.4-.73l-4.41,2.68a10.34,10.34,0,0,0,20,0C122.26,127.46,120.2,126.23,119.82,126Z"/><path class="cls-13" d="M147.43,42.54s3.91-3.63,6.2-13.09c0,0,3.68,2.9,4.39,3.72s-3.18-.63-4.09,3.27S148.92,45.48,147.43,42.54Z"/><path class="cls-4" d="M156.46,78.93c-3-4.33-7.58-6.25-13.57-5.66-15.4,1.52-22,6-22.25,6.2a3.27,3.27,0,0,0,3.71,5.38c.06,0,5.82-3.76,19.19-5.08.51-.05,1-.08,1.45-.08,3.6,0,5.14,1.57,6.09,2.95a3.27,3.27,0,1,0,5.38-3.71Z"/><path class="cls-4" d="M106.6,79.47c-.27-.19-6.85-4.68-22.25-6.2-6-.59-10.57,1.32-13.57,5.66a3.27,3.27,0,1,0,5.38,3.71c1-1.46,2.51-2.95,6.09-2.95.46,0,.95,0,1.45.08,13.31,1.31,19,4.93,19.18,5.07a3.27,3.27,0,0,0,3.72-5.38Z"/><path class="cls-14" d="M132.14,139.91c0,.25-.28.49-.72.73a.85.85,0,0,0-.37-.27l-.46,0-13.16.61a16.56,16.56,0,0,1-3.81.82,16.56,16.56,0,0,1-3.81-.82s-8.06-.45-11.54-.45a4.14,4.14,0,0,0-2,.31c-.69-.32-1.17-.63-1.17-1H93.46c0,1.61,1.55,2.24,3.51,3a23.49,23.49,0,0,1,4.35,2.15,12.29,12.29,0,0,0,8.65,2.17,34.15,34.15,0,0,1,3.7,0,31.65,31.65,0,0,1,3.61,0,13.36,13.36,0,0,0,1.57.1,12.65,12.65,0,0,0,7.08-2.27,23.49,23.49,0,0,1,4.35-2.15c2-.79,3.51-1.41,3.51-3Z"/><path class="cls-4" d="M122.31,149a84.23,84.23,0,0,0-8.7-.62,84.18,84.18,0,0,0-8.68.62.82.82,0,1,0,.2,1.62l.71-.08c.53,2.89,2.63,7.32,7.83,7.65,5.1-.32,7.19-4.76,7.72-7.65l.72.08h.1a.82.82,0,0,0,.1-1.63Z"/><path class="cls-15" d="M149.31,40.19s2-2.32,3.53-8.17"/><rect class="cls-16" x="110.97" y="89.18" width="5.54" height="23.32" rx="2.53" ry="2.53"/><path class="cls-17" d="M127.51,137.79c-1.49-.28-3-.58-4.08-.86a9,9,0,0,0-2.36-.33,7.69,7.69,0,0,0-4.8,1.65,5.84,5.84,0,0,1-2.61,1.11,5.6,5.6,0,0,1-2.7-1.11,7.69,7.69,0,0,0-4.8-1.65,9,9,0,0,0-2.36.33c-1,.29-2.59.58-4.08.86-4.78.91-6,1.23-6,2.12,0,.6,0,1.35,16,1.63a15.6,15.6,0,0,0,3.91.82,15.6,15.6,0,0,0,3.91-.82c16-.28,16-1,16-1.63C133.5,139,132.29,138.7,127.51,137.79Z"/><path class="cls-4" d="M156,29.79c-.44-.34-.9-.68-1.37-1-.45-3-3.39-16.9-18.74-17.24a13.23,13.23,0,0,0-2.35-2.63c-2.21-1.85-6-3.59-11.84-1.64a10.84,10.84,0,0,0-4.12-2.71c-5.08-1.84-11.93.06-20.35,5.63a11,11,0,0,0-2.38-.14C88,10.52,83.21,13.77,77.18,22c-11,1.71-17,16.6-17,24.47a4.07,4.07,0,0,0,2.45,4,5.27,5.27,0,0,0,.52.19v23c0,6.67,3.15,19.29,3.3,19.89,0,4.75.1,10.87.61,17.07,0,39.26,8.62,49.28,16.93,59,.82,1,1.63,1.9,2.44,2.88,9.17,11.13,26.48,11.27,27.22,11.27h.22c.73,0,18-.14,27.22-11.27.81-1,1.62-1.93,2.44-2.88,8.21-9.57,16.69-19.48,16.92-57.55h0l.33-12.85h0c0-1.53.05-3,.06-4.46,0-.26,0-.5,0-.75a1.07,1.07,0,0,0,.25-.44c.14-.54,3.3-13.22,3.3-19.9v-27A21.45,21.45,0,0,0,156,29.79ZM132.56,155.88c-3.76,7.28-8.57,8.15-11.95,7.61a57.54,57.54,0,0,0-6.7-.69h-.34a58.51,58.51,0,0,0-6.64.69c-3.37.55-8.18-.33-11.95-7.61-3.85-7.44-5.07-12-1.06-15.58a9.35,9.35,0,0,1,3.16-1.36c2.34-.87,10.81-2.45,12.28-1.05s4.33,3,7.25.79,5-1.51,13.86.26a11.38,11.38,0,0,1,2.37.73C137.77,143.33,136.64,148,132.56,155.88Zm26.1-69.06c0,1.11,0,2.38,0,3.84V91c0,1.13,0,2.41,0,3.8,0,7.49-.19,30.27-6.66,38.69a46.25,46.25,0,0,1-6.11,6.6c-2.49,2.28-4,3.66-5.1,9.07-.11.56-.22,1-.31,1.33a47.7,47.7,0,0,1-.6-7.25c0-7.3-3.17-11.62-9.42-12.84-4.28-.83-8.7-3.63-11.66-5.83a.54.54,0,1,0-.65.87l.19.14a8.33,8.33,0,0,1-4.72,1.52,5.49,5.49,0,0,1-4.4-1.76v0a.54.54,0,0,0,0-.64.54.54,0,0,0-.76-.11c-3,2.2-7.38,5-11.66,5.83-6.25,1.22-9.42,5.54-9.42,12.84a47.7,47.7,0,0,1-.6,7.25c-.09-.33-.19-.76-.31-1.33-1.1-5.41-2.6-6.79-5.1-9.07a46.25,46.25,0,0,1-6.11-6.6c-6.67-8.67-6.67-32.43-6.67-42.58v-.24c0-1.46,0-2.73,0-3.84,0-6.88-.05-7.6,2.28-12.66,2.89-6.29,2.73-14.57,2.73-14.89v-10a35.2,35.2,0,0,0,9.86-5.51A11.58,11.58,0,0,1,93,40.83a20.58,20.58,0,0,0,12,4c3.29,0,5.73-.5,7.52-1.72a16.25,16.25,0,0,0,3.93.49,11.66,11.66,0,0,0,4.41-.81,23,23,0,0,0,7,1.18,13,13,0,0,0,6-1.35,1.09,1.09,0,0,0,.43.09H143a10.62,10.62,0,0,1,10.69,10.52,1,1,0,0,0,.05.25,1,1,0,0,0-.05.25v5.48c0,.35-.17,8.63,2.73,14.92C158.71,79.23,158.71,79.95,158.66,86.82Z"/><path class="cls-18" d="M101.49,113.89a12.9,12.9,0,0,0-2.18,6.27c0,3.13,3.27,4.22,5.72,4.22"/><path class="cls-18" d="M125.74,113.89a12.9,12.9,0,0,1,2.18,6.27c0,3.13-3.27,4.22-5.72,4.22"/><path class="cls-18" d="M124,122.61a7.31,7.31,0,0,0-4.77,1.77c-2.18,1.91-3.81,2.72-5.58,2.72s-3.41-.82-5.58-2.72a7.31,7.31,0,0,0-4.77-1.77"/></g></svg>