<?xml version="1.0" encoding="utf-8"?>
<!-- Generator: Adobe Illustrator 21.0.0, SVG Export Plug-In . SVG Version: 6.00 Build 0)  -->
<svg version="1.1" id="Layer_1" xmlns="http://www.w3.org/2000/svg" xmlns:xlink="http://www.w3.org/1999/xlink" x="0px" y="0px"
	 viewBox="0 0 2500 1844" style="enable-background:new 0 0 2500 1844;" xml:space="preserve">
<style type="text/css">
	.st0{clip-path:url(#SVGID_2_);fill:#FFFFFF;}
	.st1{clip-path:url(#SVGID_2_);fill:#DA1F26;}
</style>
<g>
	<defs>
		<rect id="SVGID_1_" y="0.1" width="2500" height="1843.8"/>
	</defs>
	<clipPath id="SVGID_2_">
		<use xlink:href="#SVGID_1_"  style="overflow:visible;"/>
	</clipPath>
	<polygon class="st0" points="2142.9,1640.9 1074.8,1748.9 330.7,1640.9 114.7,1010.8 330.7,482.8 1596.9,92.7 2010.9,194.7 
		2436.9,818.8 	"/>
	<path class="st1" d="M2500,880.9v82.3c-0.8,4.5-1.8,8.8-2.3,13.3c-4.3,35.8-7,71.8-12.9,107.4c-19.2,115.5-60.8,222.8-122.5,322.1
		c-93.7,150.7-220.5,265.6-379.7,344.1c-91.9,45.5-191,74.8-292.9,86.4c-22.6,2.6-45.2,5-67.9,7.4H743.5c-4.4-0.8-8.8-2.1-13.3-2.4
		c-88.6-5.6-173.8-25.8-255-61.3c-176.8-77.4-308.6-202.8-394.9-375.3c-38.1-76.1-62.8-158.3-72.9-242.8
		c-2.5-20.6-4.9-41.1-7.4-61.6v-79.9c0.8-4.4,2.1-8.8,2.4-13.3C7,930.5,22.7,856,50.5,784.4C125,591.8,255.1,448.9,439.8,356.4
		c95.9-48,198-73.2,304.9-78.8c52.3-2.7,104.6,0.2,156.6,7.2c4.7,0.6,11.5-1.5,14.8-4.8c74.8-76.4,160-138.5,256-185.5
		c93.1-45.6,191.2-75,294.4-86.8c24.3-2.8,48.6-5.1,72.9-7.6h74.9c4.9,0.8,9.8,1.6,14.7,2.2c37.1,4.3,74.4,7,111.2,13.2
		c114.7,19.2,221.4,60.4,320.1,121.5c151.4,93.7,266.9,220.6,345.7,380.4c45.6,92,74.9,191.1,86.5,293.1
		C2495.2,834,2497.5,857.4,2500,880.9 M1102.2,348.3c1.5,2,1.9,2.9,2.5,3.2c51.4,25.3,100.6,55.1,146.9,88.8
		c2.9,2.1,10.2,1.2,13.7-1c127.3-80.7,265.3-108.5,413.6-82.2c145.3,25.8,263.5,98.4,353.8,214.3c102.3,131.2,141.3,279.6,113,444.7
		c-18.9,110.6-63.3,209.9-138.6,293c-137.4,151.6-309.6,214.3-512.2,187.7c-124.7-16.3-232.4-70.1-321.5-160.2
		c-114.4-115.5-229.5-230.3-344.2-345.5C814,975.8,797,963.4,775,960.7c-38.5-4.7-73.4,14.5-90,49c-14.8,30.8-12.9,65.6,19.2,97.2
		c127.9,125.5,254.6,252.2,382.4,377.9c21.9,21.6,45.3,41.6,70.1,59.7c93.3,67.8,198.5,105.2,312.4,120.3
		c89.4,11.8,178.1,9.3,266.2-10.5c167.9-37.7,307.1-123.4,416.6-255.7c90.5-109.3,145.2-234.9,164.3-375.9
		c11.1-80.4,8.7-162.1-6.8-241.7c-25.4-130.2-80.5-246.8-168.8-346c-168.5-189.2-380.4-273.6-632.6-254.8
		c-97,7.2-188.8,35.7-275.1,80.9C1186.3,285.4,1142.5,314.6,1102.2,348.3 M1040.5,1668.8c-3.5-3.2-6.9-6.4-10.4-9.7
		c-52.3-49.4-104.9-98.4-156.5-148.4c-10-9.7-19.2-14.4-33.4-14.1c-52.3,1.3-104.7,1.5-156.3-10.1c-256.4-58-405.2-336.7-310.8-582
		C447.7,711.1,654,593.3,857.5,629.6c91.2,16.3,171.2,54.9,236.9,122.6c80.1,82.7,162.6,163.1,243.6,244.9
		c18.4,18.6,39.6,27.1,65.1,23.5c33-4.7,59.3-20.4,71.2-52.8c11.7-31.9,6-62-18.1-86.4c-85-86.1-168-174.4-256.4-256.8
		c-171.5-160-373.8-207.6-597.5-139.5c-300.9,91.4-477,402.1-408.2,708.7c62.7,279.3,307,475.4,592.8,475.6
		c79.8,0.1,159.7,0,239.5,0C1030.4,1669.4,1034.4,1669.1,1040.5,1668.8"/>
</g>
</svg>
