<?xml version="1.0" encoding="utf-8"?>
<!-- Generator: Adobe Illustrator 21.0.0, SVG Export Plug-In . SVG Version: 6.00 Build 0)  -->
<svg version="1.1" xmlns="http://www.w3.org/2000/svg" xmlns:xlink="http://www.w3.org/1999/xlink" x="0px" y="0px"
	 viewBox="0 0 566.2 512" style="enable-background:new 0 0 566.2 512;" xml:space="preserve">
<style type="text/css">
	.st0{display:none;}
	.st1{fill:#E34F26;}
	.st2{fill:#EF652A;}
	.st3{display:inline;fill:#EBEBEB;}
	.st4{display:inline;fill:#FFFFFF;}
	.st5{display:inline;fill:#1572B6;}
	.st6{display:inline;fill:#33A9DC;}
	.st7{fill:#FDB300;}
	.st8{fill:#EA6C00;}
	.st9{fill:#FDAD00;}
	.st10{fill:#FDD231;}
	.st11{fill:#FEEEB7;}
</style>
<g id="Layer_1" class="st0">
	<title>HTML5 Logo Badge</title>
	<path class="st1" d="M71,460L30,0h451l-41,460l-185,52"/>
	<path class="st2" d="M256,472l149-41l35-394H256"/>
	<path class="st3" d="M256,208h-75l-5-58h80V94h-1H114l1,15l14,156h127V208z M256,355h-1l-63-17l-4-45h-30h-26l7,89l116,32h1V355z"
		/>
	<path class="st4" d="M255,208v57h70l-7,73l-63,17v59l116-32l1-10l13-149l2-15h-16H255z M255,94v35v21l0,0h137l0,0l0,0l1-12l3-29
		l1-15H255z"/>
	<title>CSS3 Logo</title>
	<polygon class="st5" points="72.3,460.8 31.2,0 482.7,0 441.5,460.7 256.7,512 	"/>
	<polygon class="st6" points="256.9,472.8 406.3,431.4 441.5,37.7 256.9,37.7 	"/>
	<path class="st4" d="M113,86.7l-0.3,57h232.1l-0.1,36.8H112.4l-0.2,57h232.1l-0.3,65l-87.5,31l-87.1-31l0.1-28.2h-57l-0.3,68.4
		L256.3,394l144.6-51.3l0.5-102.9l0.1-20.7l0.6-132.5L113,86.7L113,86.7z"/>
</g>
<g id="Layer_2">
	<title>Artboard 1</title>
	<path class="st7" d="M123.5,16.8L283.1,0l159.5,16.8l123.5,165.9L283.1,512.3L0,182.7L123.5,16.8z"/>
	<polygon class="st8" points="114.6,182.7 283.1,512.3 0,182.7 	"/>
	<polygon class="st8" points="451.5,182.7 283.1,512.3 566.2,182.7 	"/>
	<polygon class="st9" points="114.6,182.7 451.5,182.7 283.1,512.3 	"/>
	<polygon class="st10" points="283.1,0 123.5,16.8 114.6,182.7 	"/>
	<polygon class="st10" points="283.1,0 442.6,16.8 451.5,182.7 	"/>
	<polygon class="st9" points="566.2,182.7 442.6,16.8 451.5,182.7 	"/>
	<polygon class="st9" points="0,182.7 123.5,16.8 114.6,182.7 	"/>
	<polygon class="st11" points="283.1,0 114.6,182.7 451.5,182.7 	"/>
</g>
</svg>
