<?xml version="1.0" encoding="utf-8"?>
<!-- Generator: Adobe Illustrator 21.0.0, SVG Export Plug-In . SVG Version: 6.00 Build 0)  -->
<svg version="1.1" id="Layer_1" xmlns="http://www.w3.org/2000/svg" xmlns:xlink="http://www.w3.org/1999/xlink" x="0px" y="0px"
	 viewBox="0 0 393.2 355.8" style="enable-background:new 0 0 393.2 355.8;" xml:space="preserve">
<style type="text/css">
	.st0{fill:#FDB300;}
	.st1{fill:#EA6C00;}
	.st2{fill:#FDAD00;}
	.st3{fill:#FDD231;}
	.st4{fill:#FEEEB7;}
</style>
<title>Artboard 1</title>
<path class="st0" d="M85.8,11.7L196.6,0l110.8,11.7l85.8,115.2L196.6,355.8L0,126.9L85.8,11.7z"/>
<polygon class="st1" points="79.6,126.9 196.6,355.8 0,126.9 "/>
<polygon class="st1" points="313.6,126.9 196.6,355.8 393.2,126.9 "/>
<polygon class="st2" points="79.6,126.9 313.6,126.9 196.6,355.8 "/>
<polygon class="st3" points="196.6,0 85.8,11.7 79.6,126.9 "/>
<polygon class="st3" points="196.6,0 307.4,11.7 313.6,126.9 "/>
<polygon class="st2" points="393.2,126.9 307.4,11.7 313.6,126.9 "/>
<polygon class="st2" points="0,126.9 85.8,11.7 79.6,126.9 "/>
<polygon class="st4" points="196.6,0 79.6,126.9 313.6,126.9 "/>
</svg>
