<?xml version="1.0" encoding="utf-8"?>
<!-- Generator: Adobe Illustrator 17.0.0, SVG Export Plug-In . SVG Version: 6.00 Build 0)  -->
<!DOCTYPE svg PUBLIC "-//W3C//DTD SVG 1.1//EN" "http://www.w3.org/Graphics/SVG/1.1/DTD/svg11.dtd">
<svg version="1.1" id="Layer_1" xmlns="http://www.w3.org/2000/svg" xmlns:xlink="http://www.w3.org/1999/xlink" x="0px" y="0px"
	 width="400px" height="400px" viewBox="0 0 400 400" enable-background="new 0 0 400 400" xml:space="preserve">
<g>
	<g display="none">
		<g display="inline">
			<path d="M79.769,42.096h34.157l84.368,213.821L282.32,42.096h34.156v243.879h-23.227V75.228h-0.683l-83.343,210.747h-21.86
				L103.679,75.228h-0.683v210.747H79.769V42.096z"/>
		</g>
		<g display="inline">
			<path d="M198.162,132.69c19.739-0.001,37.22,3.28,52.441,9.843c15.223,6.562,28.02,15.361,38.391,26.397
				c10.371,11.037,18.232,23.937,23.586,38.701c5.353,14.765,8.029,30.499,8.029,47.203c0.001,16.703-2.676,32.438-8.029,47.202
				s-13.215,27.666-23.586,38.702s-23.168,19.761-38.391,26.174c-15.222,6.413-32.702,9.619-52.441,9.619
				c-19.738,0-37.219-3.206-52.441-9.619s-28.019-15.138-38.39-26.174S89.098,316.8,83.745,302.036
				c-5.353-14.765-8.029-30.499-8.029-47.202c0-16.704,2.676-32.438,8.029-47.203c5.353-14.764,13.215-27.665,23.586-38.701
				s23.167-19.835,38.39-26.397C160.943,135.971,178.424,132.69,198.162,132.69z M198.162,156.403
				c-15.055,0-28.27,2.833-39.645,8.501c-11.375,5.667-20.826,13.124-28.354,22.371c-7.527,9.247-13.215,19.76-17.062,31.542
				c-3.848,11.782-5.771,23.788-5.771,36.018s1.923,24.234,5.771,36.017c3.847,11.782,9.535,22.297,17.062,31.543
				c7.528,9.247,16.979,16.704,28.354,22.371s24.59,8.501,39.645,8.501c15.056,0,28.271-2.834,39.646-8.501
				c11.374-5.667,20.825-13.124,28.353-22.371c7.527-9.246,13.215-19.761,17.063-31.543c3.846-11.781,5.77-23.787,5.771-36.017
				c0-12.229-1.924-24.235-5.771-36.018s-9.535-22.296-17.063-31.542s-16.979-16.703-28.353-22.371
				C226.433,159.237,213.218,156.403,198.162,156.403z"/>
		</g>
	</g>
	
		<text transform="matrix(1 0 0 1 238.8693 379.9936)" display="none" fill="#231F20" enable-background="new    " font-family="'HelveticaNeueLTStd-ThCn'" font-size="33.5284">Mulazada</text>
</g>
<g>
	<path fill="#FFFFFF" d="M261.386,156.572c5.46,2.354,10.658,4.951,15.605,7.778l35.477-89.71h0.831v119.924
		c10.091,12.082,17.939,25.83,23.532,41.254c1.845,5.089,3.419,10.277,4.742,15.556V34.307h-41.579l-46.792,119.071
		C255.986,154.364,258.718,155.421,261.386,156.572z"/>
	<path fill="#FFFFFF" d="M184.403,331.186h26.611l53.606-135.551c-5.7-4.474-11.966-8.42-18.81-11.83
		c-1.265-0.63-2.556-1.222-3.858-1.794l-44.243,112.586l-44.444-112.638c-1.343,0.588-2.673,1.197-3.976,1.846
		c-6.814,3.395-13.054,7.323-18.734,11.773L184.403,331.186z"/>
	<path fill="#FFFFFF" d="M58.266,235.818c5.574-15.374,13.39-29.082,23.434-41.135V74.639h0.832l35.614,89.688
		c4.936-2.818,10.119-5.408,15.565-7.755c2.695-1.162,5.455-2.229,8.266-3.221L95.006,34.307h-41.58v217.456
		C54.768,246.35,56.376,241.033,58.266,235.818z"/>
</g>
<text transform="matrix(1 0 0 1 238.8693 379.9936)" fill="#FFFFFF" font-family="'HelveticaNeueLTStd-ThCn'" font-size="33.5284">Mulazada</text>
</svg>
