<?xml version="1.0" encoding="utf-8"?>
<!-- Generator: Adobe Illustrator 21.0.0, SVG Export Plug-In . SVG Version: 6.00 Build 0)  -->
<svg version="1.1" id="Layer_1" xmlns="http://www.w3.org/2000/svg" xmlns:xlink="http://www.w3.org/1999/xlink" x="0px" y="0px"
	 viewBox="0 0 96.6 131.5" style="enable-background:new 0 0 96.6 131.5;" xml:space="preserve">
<style type="text/css">
	.st0{display:none;}
	.st1{fill:#FFFFFF;}
</style>
<path class="st0" d="M107.4,8.2H106v4.7h-0.8V8.2h-1.5V7.5h3.8L107.4,8.2z M113.3,12.8h-0.8V8.3l-1.4,4.5h-0.8l-1.4-4.5v4.5h-0.8
	V7.5h1.3l1.3,4.3l1.3-4.3h1.3C113.3,7.5,113.3,12.8,113.3,12.8z M48.3,76.6l48.3-42v54.9l-48.3,42L0,89.5V0l48.3,42L96.6,0v20.3
	l-48.3,42L15.8,34.1v48.8l32.5,28.2l32.5-28.2V68.7L48.3,96.9L26.9,78.3V58L48.3,76.6z M9.8,150.3L7,150.7c-0.1-1.6-0.7-2.2-2.3-2.2
	c-1.6,0-2.3,1-2.3,2.7v4.5c0,1.7,0.7,2.8,2.3,2.8c2,0,2.5-0.7,2.5-2.8v-0.5H4.6v-2.4h5.2v3c0,3.9-2.2,5.2-5.2,5.2
	c-3.1,0-5.2-1.6-5.2-5v-5c0-3.4,2.2-5,5.2-5C8,146.1,9.5,147.1,9.8,150.3z M15.2,146.2v9.6c0,1.8,0.5,2.7,2.3,2.7s2.3-0.9,2.3-2.7
	v-9.6h2.9v9.8c0,3.4-1.9,5-5.1,5c-3.3,0-5.1-1.6-5.1-5v-9.8C12.5,146.2,15.2,146.2,15.2,146.2z M34,146.2l-0.4,2.6h-5.5v3.2h4v2.6
	h-4v3.8h5.5l0.4,2.5h-8.8v-14.7L34,146.2L34,146.2z M63.7,146.2v14.7h-2.9v-14.7H63.7z M69.4,146.2v12.2h5.5l0.4,2.5h-8.8v-14.7
	H69.4z M79.6,146.2v12.2h5.5l0.4,2.5h-8.8v-14.7H79.6z M41.1,146.2c3.5,0,4.9,1.2,4.9,4v1.2c0,1.6-0.5,2.9-2.4,3.6l3,5.9h-3
	l-2.8-5.5h-1.7v5.5h-2.9v-14.7C36.2,146.2,41.1,146.2,41.1,146.2z M39.1,153h2.1c1.5,0,2.1-0.4,2.1-1.8v-0.7c0-1.4-0.5-1.8-2.1-1.8
	h-2.1C39.1,148.7,39.1,153,39.1,153z M53.4,146.2c3.5,0,4.9,1.2,4.9,4v1.2c0,1.6-0.5,2.9-2.4,3.6l3,5.9h-3l-2.8-5.5h-1.7v5.5h-2.9
	v-14.7H53.4z M51.4,153h2.1c1.5,0,2.1-0.4,2.1-1.8v-0.7c0-1.4-0.5-1.8-2.1-1.8h-2.1V153z M93.7,146.2l4.1,14.7h-2.9l-0.8-3.1h-4
	l-0.8,3.1h-2.8l4.1-14.7H93.7L93.7,146.2z M90.6,155.4h3l-1.5-5.6L90.6,155.4z"/>
<path class="st1" d="M107.4,8.2H106v4.7h-0.8V8.2h-1.5V7.5h3.8L107.4,8.2z M113.3,12.8h-0.8V8.3l-1.4,4.5h-0.8l-1.4-4.5v4.5h-0.8
	V7.5h1.3l1.3,4.3l1.3-4.3h1.3C113.3,7.5,113.3,12.8,113.3,12.8z M48.3,76.6l48.3-42v54.9l-48.3,42L0,89.5V0l48.3,42L96.6,0v20.3
	l-48.3,42L15.8,34.1v48.8l32.5,28.2l32.5-28.2V68.7L48.3,96.9L26.9,78.3V58L48.3,76.6z M9.8,150.3L7,150.7c-0.1-1.6-0.7-2.2-2.3-2.2
	c-1.6,0-2.3,1-2.3,2.7v4.5c0,1.7,0.7,2.8,2.3,2.8c2,0,2.5-0.7,2.5-2.8v-0.5H4.6v-2.4h5.2v3c0,3.9-2.2,5.2-5.2,5.2
	c-3.1,0-5.2-1.6-5.2-5v-5c0-3.4,2.2-5,5.2-5C8,146.1,9.5,147.1,9.8,150.3z M15.2,146.2v9.6c0,1.8,0.5,2.7,2.3,2.7s2.3-0.9,2.3-2.7
	v-9.6h2.9v9.8c0,3.4-1.9,5-5.1,5c-3.3,0-5.1-1.6-5.1-5v-9.8C12.5,146.2,15.2,146.2,15.2,146.2z M34,146.2l-0.4,2.6h-5.5v3.2h4v2.6
	h-4v3.8h5.5l0.4,2.5h-8.8v-14.7L34,146.2L34,146.2z M63.7,146.2v14.7h-2.9v-14.7H63.7z M69.4,146.2v12.2h5.5l0.4,2.5h-8.8v-14.7
	H69.4z M79.6,146.2v12.2h5.5l0.4,2.5h-8.8v-14.7H79.6z M41.1,146.2c3.5,0,4.9,1.2,4.9,4v1.2c0,1.6-0.5,2.9-2.4,3.6l3,5.9h-3
	l-2.8-5.5h-1.7v5.5h-2.9v-14.7C36.2,146.2,41.1,146.2,41.1,146.2z M39.1,153h2.1c1.5,0,2.1-0.4,2.1-1.8v-0.7c0-1.4-0.5-1.8-2.1-1.8
	h-2.1C39.1,148.7,39.1,153,39.1,153z M53.4,146.2c3.5,0,4.9,1.2,4.9,4v1.2c0,1.6-0.5,2.9-2.4,3.6l3,5.9h-3l-2.8-5.5h-1.7v5.5h-2.9
	v-14.7H53.4z M51.4,153h2.1c1.5,0,2.1-0.4,2.1-1.8v-0.7c0-1.4-0.5-1.8-2.1-1.8h-2.1V153z M93.7,146.2l4.1,14.7h-2.9l-0.8-3.1h-4
	l-0.8,3.1h-2.8l4.1-14.7H93.7L93.7,146.2z M90.6,155.4h3l-1.5-5.6L90.6,155.4z"/>
</svg>
