<?xml version="1.0" encoding="utf-8"?>
<!-- Generator: Adobe Illustrator 22.0.0, SVG Export Plug-In . SVG Version: 6.00 Build 0)  -->
<svg version="1.1" id="Layer_1" xmlns="http://www.w3.org/2000/svg" xmlns:xlink="http://www.w3.org/1999/xlink" x="0px" y="0px"
	 viewBox="0 0 193.6 54" style="enable-background:new 0 0 193.6 54;" xml:space="preserve">
<title>Artboard 1</title>
<path d="M12.2,27.2c-2.4,0.1-4.8-0.7-6.6-2.4c-1.6-1.7-2.6-4-2.6-6.4h2.1c0,1.9,0.7,3.6,2,5c1.3,1.3,3.3,1.9,5.8,1.7
	c1.8,0,3.5-0.7,4.8-2c0.8-0.9,1.2-2.1,1.1-3.3c-0.2-3-3.1-3.9-7.2-4.8l-0.7-0.1C4.6,13.4,4,10.2,4,9.5C3.7,7.6,4.1,5.6,5.3,4
	c1.3-1.6,3.4-2.4,6.2-2.4c3,0,5.2,0.8,6.6,2.4c1.2,1.4,1.8,3.2,1.7,5h-2.1c0.1-1.3-0.3-2.6-1.1-3.6c-1-1.1-2.8-1.7-5.1-1.7
	c-2.2,0-3.7,0.6-4.6,1.6C6.1,6.5,5.8,7.8,6.1,9.2v0.2c0,0,0.2,2.2,5.2,3.4l0.7,0.1c3.6,0.8,8.6,1.9,8.9,6.8c0.1,1.8-0.4,3.5-1.6,4.9
	c-1.6,1.7-3.9,2.6-6.2,2.7H12.2z M31,27.1c-2.8-0.1-5.4-1.7-6.7-4.1c-0.9-1.9-1.2-3.9-1-6c0.3-4.5,2.5-8.9,7.6-8.9
	c1.8-0.1,3.6,0.6,4.9,1.8c1.1,1.2,1.8,2.8,1.8,4.5h-2.1c0-0.4-0.2-4.2-4.7-4.2c-4.2,0-5.1,4.1-5.1,4.3c-0.2,0.9-0.3,1.8-0.4,2.7
	c-0.2,1.7,0.1,3.3,0.8,4.9c1.1,2.2,3.4,3.4,5.8,3c1.7-0.4,3-1.7,3.4-3.4c0.2-0.5,0.3-1,0.3-1.5h2.1c0,0.7-0.2,1.4-0.4,2.1
	c-0.6,2.4-2.6,4.3-5,4.8C31.9,27.1,31.5,27.2,31,27.1L31,27.1z M54,19.6V16c0-1.3-0.1-2.5-0.4-3.7c-0.1-0.7-0.4-1.4-0.9-2
	c-0.4-0.6-1-1.1-1.7-1.4c-0.6-0.3-1.3-0.5-2-0.6c-0.7-0.1-1.4-0.1-2.1,0.1c-1.3,0.3-2.5,1-3.5,1.9c-0.4,0.4-0.8,0.8-1.1,1.3V1.8
	h-2.1v24.9h2.1V13.9c0.5-1,1.2-1.9,2.1-2.6c0.8-0.7,1.7-1.1,2.8-1.3c1-0.1,2,0.1,2.8,0.6c0.4,0.2,0.7,0.5,1,0.9
	c0.3,0.4,0.4,0.8,0.5,1.3c0.2,1.1,0.3,2.2,0.3,3.3v10.7H54C53.9,24.4,54,22,54,19.6L54,19.6z M68.6,8.4v11.9c0,0.4-0.1,0.7-0.2,1.1
	c-0.4,1.7-1.7,3-3.3,3.6c-0.9,0.3-1.8,0.3-2.6,0c-0.5-0.1-0.9-0.3-1.3-0.6c-0.4-0.3-0.7-0.7-1-1.2c-0.3-0.4-0.5-0.9-0.6-1.4
	c0-0.3-0.1-0.6-0.1-0.8V20v-3.8l0.1-7.8h-2.1l-0.1,7.7v4.9c0,0.4,0.1,0.7,0.1,1.1c0.1,0.8,0.4,1.5,0.8,2.2c0.4,0.7,0.9,1.2,1.5,1.7
	c0.6,0.5,1.4,0.8,2.2,1c0.8,0.1,1.5,0.1,2.3,0c1.3-0.2,2.5-0.8,3.3-1.8c0.3-0.4,0.6-0.8,0.9-1.3v2.7h2.1V8.4H68.6z M81.1,24.6h-0.6
	c-0.8,0-1.8,0.1-2.2-0.3c-0.2-0.3-0.3-0.6-0.3-1V10.5h3.1V8.4H78V3.1H76v5.3h-3.1v2.1H76v12.8c-0.1,0.9,0.3,1.9,0.9,2.5
	c0.8,0.7,1.8,1,2.9,0.9h1.4L81.1,24.6z M122.3,40h5.1v1.3h-5.1V40z"/>
<path d="M126.6,51.2c-0.6,0.1-1.3-0.1-1.8-0.6c-0.4-0.4-0.6-1-0.6-1.6V36.7h1.3v12.4c0,0.2,0,0.5,0.2,0.7c0.2,0.2,0.9,0.2,1.4,0.2
	h0.4v1.3L126.6,51.2L126.6,51.2z M102,26.7L95.2,8.4h2.4l5.4,14.8l5.3-14.8h2.4l-6.6,18.3C103.9,26.7,102,26.7,102,26.7z M125,24.2
	c-0.2-0.6-0.3-1.3-0.3-2c0-2.6,0-5.3,0.1-7.9v-0.2c0-1.6,0-3.5-1.8-4.8c-1.5-0.9-3.3-1.3-5.1-1.1c-6.2,0.5-5.9,6-5.9,6.1h2.1
	c0-0.1-0.2-3.7,4-4c1.3-0.2,2.6,0.1,3.7,0.7c0.9,0.6,1,1.5,1,3.1v0.5c0,0.2,0,0.5-0.2,0.7c-0.2,0.2-0.4,0.3-0.6,0.5
	c-0.6,0.2-1.2,0.4-1.8,0.4c-1.5,0.1-3,0.4-4.4,0.7c-0.8,0.2-1.5,0.5-2.2,0.9c-0.4,0.2-0.7,0.5-1,0.8c-0.3,0.3-0.6,0.7-0.8,1.1
	c-0.2,0.4-0.3,0.8-0.4,1.3c0,0.3,0,0.6,0,0.9c0,0.4,0,0.8,0.1,1.3c0.1,0.4,0.2,0.9,0.5,1.3c0.4,0.8,1.1,1.4,1.9,1.9
	c0.7,0.4,1.5,0.7,2.3,0.8c0.8,0.1,1.6,0.1,2.4,0c0.4-0.1,0.8-0.2,1.2-0.3l0.3-0.1l0.3-0.2c0.2-0.1,0.4-0.2,0.5-0.4
	c0.6-0.5,1.2-1.1,1.6-1.8c0.1-0.2,0.3-0.4,0.4-0.6c0,0.6,0.2,1.3,0.4,1.9c0.7,1.4,2.6,1.2,3.3,1.2v-2.1
	C125.5,24.7,125.2,24.5,125,24.2L125,24.2z M122.2,21.8c-0.6,1.1-1.4,2.1-2.5,2.7c-0.1,0.1-0.2,0.1-0.4,0.2l-0.4,0.1
	c-0.3,0.1-0.6,0.2-0.8,0.2c-0.6,0.1-1.2,0.1-1.8,0c-1.1-0.1-2.1-0.7-2.7-1.6c-0.2-0.5-0.3-1-0.3-1.5c0-0.3,0-0.6,0.1-0.8
	c0.1-0.2,0.1-0.5,0.3-0.7c0.6-1,1.5-1.6,2.6-1.9c1.3-0.3,2.7-0.6,4-0.8c0.8-0.1,1.5-0.4,2.2-0.7l0.2-0.1v4
	C122.6,21.1,122.4,21.5,122.2,21.8L122.2,21.8z M137.8,49.6c-0.2-0.5-0.3-1-0.2-1.5v-4.4c0-1,0.2-2.5-1.1-3.3
	c-1-0.6-2.2-0.8-3.4-0.7c-4.1,0.3-3.9,3.7-3.9,3.7h1.4c0-0.1-0.1-2.3,2.7-2.5c0.8-0.1,1.7,0,2.5,0.4c0.6,0.4,0.6,0.9,0.6,1.9v0.3
	c0,0.1,0,0.3-0.1,0.4c-0.1,0.1-0.3,0.2-0.4,0.3c-0.4,0.1-0.8,0.2-1.2,0.3c-1,0.1-2,0.2-2.9,0.4c-0.5,0.1-1,0.3-1.5,0.6
	c-0.2,0.1-0.5,0.3-0.7,0.5c-0.2,0.2-0.4,0.4-0.5,0.7c-0.3,0.7-0.4,1.4-0.2,2.1c0.1,0.3,0.2,0.5,0.3,0.8c0.3,0.5,0.7,0.9,1.2,1.2
	c0.5,0.2,1,0.4,1.5,0.5c0.5,0.1,1.1,0.1,1.6,0c0.3,0,0.5-0.1,0.8-0.2l0.2-0.1l0.2-0.1c0.1-0.1,0.2-0.1,0.4-0.2
	c0.4-0.3,0.8-0.7,1.1-1.1c0.1-0.1,0.2-0.3,0.3-0.4c0,0.4,0.1,0.8,0.3,1.2c0.5,0.8,1.8,0.8,2.2,0.8v-1.3
	C138.2,49.9,137.9,49.8,137.8,49.6z M136,48.1c-0.4,0.7-1,1.3-1.7,1.6l-0.3,0.1l-0.3,0.1c-0.2,0.1-0.4,0.1-0.5,0.1
	c-0.4,0.1-0.8,0.1-1.2,0c-0.7-0.1-1.3-0.4-1.8-1c-0.2-0.3-0.2-0.6-0.2-0.9c0-0.2,0-0.3,0-0.5c0-0.2,0.1-0.3,0.2-0.4
	c0.4-0.6,1-1,1.8-1.1c0.9-0.2,1.8-0.4,2.6-0.5c0.5-0.1,1-0.2,1.5-0.4l0.1-0.1v2.5C136.2,47.7,136.1,47.9,136,48.1L136,48.1z
	 M161.8,27.2c-5.9,0-10.7-5.8-10.7-13s4.8-13,10.7-13s10.7,5.8,10.7,13S167.8,27.2,161.8,27.2z M161.8,3.2c-4.8,0-8.6,4.9-8.6,10.9
	s3.9,10.9,8.6,10.9s8.6-4.9,8.6-10.9S166.6,3.2,161.8,3.2L161.8,3.2z M116.2,51.6c-2.8,0-5-2.7-5-6.1s2.3-5.7,5-5.7s5,2.4,5,5.7
	S118.9,51.6,116.2,51.6z M116.2,41c-2.1,0-3.9,1.8-3.9,4.5s1.7,4.9,3.9,4.9s3.9-2.2,3.9-4.9S118.3,41,116.2,41L116.2,41z"/>
<path d="M116.2,40c2.7,0,4.8,2.4,4.8,5.5s-2.2,5.9-4.8,5.9s-4.8-2.6-4.8-5.9S113.4,40,116.2,40 M116.2,50.6c2.2,0,4.1-2.3,4.1-5.1
	s-1.8-4.7-4.1-4.7s-4.1,2-4.1,4.7S113.9,50.6,116.2,50.6 M116.2,39.8c-2.8,0-5,2.4-5,5.7s2.3,6.1,5,6.1s5-2.7,5-6.1
	S118.9,39.8,116.2,39.8z M116.2,50.4c-2.1,0-3.9-2.2-3.9-4.9s1.7-4.5,3.9-4.5s3.9,1.8,3.9,4.5S118.3,50.4,116.2,50.4z M181.5,27.2
	c-1.8,0.1-3.6-0.5-4.9-1.8c-1.2-1.3-1.9-3-1.9-4.8h1.5c0,1.4,0.5,2.7,1.5,3.7c1.2,1,2.8,1.5,4.3,1.3c1.3,0,2.6-0.5,3.6-1.5
	c0.6-0.7,0.9-1.6,0.8-2.5c-0.1-2.3-2.3-2.9-5.4-3.6l-0.5-0.1c-4.6-1-5-3.4-5.1-3.9c-0.2-1.4,0.1-2.9,1-4.1c1.2-1.3,2.9-1.9,4.6-1.8
	c1.8-0.1,3.6,0.5,5,1.8c0.9,1,1.3,2.3,1.2,3.7h-1.5c0.1-1-0.2-1.9-0.9-2.7c-1-0.9-2.4-1.4-3.8-1.3c-1.3-0.1-2.6,0.3-3.5,1.2
	c-0.6,0.8-0.8,1.9-0.6,2.9v0.1c0,0,0.2,1.7,3.9,2.5l0.5,0.1c2.7,0.6,6.4,1.4,6.6,5c0.1,1.3-0.3,2.6-1.2,3.6c-1.2,1.3-2.9,2-4.6,2
	L181.5,27.2z"/>
<path d="M181.5,27.4c-1.8,0.1-3.6-0.6-5-1.8c-1.3-1.3-2-3.1-2-4.9v-0.2h2v0.2c0,1.3,0.5,2.6,1.4,3.5c1.1,1,2.7,1.4,4.1,1.2
	c1.3,0,2.5-0.5,3.4-1.4c0.6-0.6,0.8-1.5,0.8-2.3c-0.1-2.1-2.3-2.8-5.2-3.4l-0.5-0.1c-4.7-1.1-5.2-3.4-5.2-4.1c-0.3-1.5,0.1-3,1-4.2
	c1.2-1.3,3-2,4.8-1.9c1.9-0.1,3.8,0.5,5.1,1.9c0.9,1.1,1.4,2.4,1.3,3.8v0.2h-2v-0.2c0-0.9-0.2-1.8-0.8-2.5c-1-0.9-2.3-1.3-3.6-1.2
	c-1.2-0.1-2.4,0.3-3.3,1.1c-0.5,0.8-0.8,1.8-0.6,2.7v0.2c0,0.1,0.3,1.5,3.7,2.3l0.5,0.1c2.8,0.6,6.5,1.5,6.8,5.2
	c0.1,1.4-0.3,2.7-1.3,3.8c-1.3,1.3-3,2-4.8,2L181.5,27.4z M174.9,20.8c0,1.7,0.7,3.2,1.9,4.4c1.5,1.3,3.4,1.9,5.3,1.7
	c1.7,0,3.3-0.7,4.5-1.9c0.8-0.9,1.3-2.2,1.1-3.5c-0.2-3.5-3.8-4.3-6.4-4.8l-0.5-0.1c-3.1-0.7-3.8-2-4-2.5v-0.3
	c-0.2-1.1,0.1-2.1,0.7-3c0.9-1,2.3-1.4,3.6-1.3c1.5-0.1,2.9,0.4,4,1.4c0.6,0.7,0.9,1.6,0.9,2.6h1.1c0-1.2-0.4-2.4-1.2-3.3
	c-1.3-1.2-3-1.9-4.8-1.7c-1.7-0.2-3.3,0.5-4.5,1.7c-0.9,1.1-1.3,2.5-1.1,3.9c0,0.5,0.4,2.7,4.9,3.8l0.5,0.1c3.2,0.7,5.4,1.4,5.5,3.8
	c0.1,1-0.2,1.9-0.9,2.6c-1,1-2.3,1.5-3.7,1.5c-1.6,0.2-3.2-0.3-4.4-1.4c-0.9-1-1.5-2.3-1.5-3.6L174.9,20.8z M154.4,51.5
	c-1.1,0.1-2.2-0.3-3-1.1c-0.8-0.8-1.2-1.9-1.2-3h1c-0.1,1.7,1.2,3.1,2.9,3.1c0.2,0,0.5,0,0.7-0.1c0.8,0,1.6-0.3,2.2-0.9
	c0.4-0.4,0.6-1,0.5-1.5c-0.1-1.4-1.4-1.8-3.3-2.2l-0.3-0.1c-2.9-0.7-3.1-2.1-3.1-2.4c-0.1-0.9,0.1-1.8,0.6-2.5
	c0.7-0.8,1.8-1.2,2.9-1.1c1.1-0.1,2.3,0.3,3.1,1.1c0.5,0.6,0.8,1.4,0.8,2.3h-1c0-0.6-0.2-1.2-0.5-1.7c-0.6-0.6-1.5-0.9-2.4-0.8
	c-0.8-0.1-1.6,0.2-2.1,0.8c-0.4,0.5-0.5,1.2-0.4,1.8v0.1c0,0,0.1,1,2.4,1.5l0.3,0.1c1.7,0.4,4,0.9,4.1,3.1c0.1,0.8-0.2,1.6-0.8,2.2
	c-0.8,0.8-1.8,1.2-2.9,1.2L154.4,51.5z"/>
<path d="M154.4,51.6c-1.1,0.1-2.3-0.3-3.1-1.1c-0.8-0.8-1.2-1.9-1.2-3v-0.1h1.2v0.1c-0.1,1.6,1.1,3,2.7,3.1c0.2,0,0.5,0,0.7-0.1
	c0.8,0,1.6-0.3,2.1-0.9c0.4-0.4,0.5-0.9,0.5-1.5c-0.1-1.3-1.4-1.7-3.3-2.1l-0.3-0.1c-3-0.7-3.2-2.2-3.2-2.5
	c-0.2-0.9,0.1-1.9,0.6-2.6c0.8-0.8,1.9-1.3,3-1.2c1.2-0.1,2.3,0.3,3.2,1.2c0.6,0.7,0.8,1.5,0.8,2.4v0.1h-1.2v-0.1
	c0-0.6-0.1-1.1-0.5-1.6c-0.6-0.6-1.4-0.8-2.3-0.8c-0.8-0.1-1.5,0.2-2.1,0.7c-0.3,0.5-0.5,1.1-0.4,1.7v0.1c0,0,0.2,1,2.3,1.5l0.3,0.1
	c1.7,0.4,4,0.9,4.2,3.2c0.1,0.8-0.2,1.7-0.8,2.3c-0.8,0.8-1.8,1.2-2.9,1.3L154.4,51.6z M150.2,47.6c0,1,0.4,2,1.1,2.8
	c0.9,0.8,2.1,1.2,3.3,1c1.1,0,2.1-0.4,2.8-1.2c0.5-0.6,0.8-1.4,0.7-2.2c-0.1-2.2-2.4-2.7-4-3l-0.3-0.1c-2-0.5-2.4-1.3-2.5-1.5v-0.2
	c-0.1-0.7,0-1.3,0.4-1.9c0.6-0.6,1.4-0.9,2.2-0.8c0.9-0.1,1.8,0.2,2.4,0.8c0.4,0.5,0.6,1,0.6,1.6h0.8c0-0.8-0.2-1.5-0.7-2.1
	c-0.8-0.8-1.9-1.2-3-1.1c-1.1-0.1-2.1,0.3-2.8,1.1c-0.5,0.7-0.7,1.6-0.6,2.5c0,0.3,0.3,1.7,3.1,2.3l0.3,0.1c2,0.4,3.3,0.9,3.4,2.3
	c0.1,0.6-0.1,1.2-0.5,1.6c-0.6,0.6-1.4,0.9-2.3,1c-1.7,0.3-3.3-0.8-3.6-2.5c0-0.2-0.1-0.4-0.1-0.6L150.2,47.6z M164.3,51.5
	c-1.1,0.1-2.2-0.3-3-1.1c-0.8-0.8-1.2-1.9-1.2-3h1c-0.1,1.7,1.2,3.1,2.9,3.1c0.2,0,0.4,0,0.6,0c0.8,0,1.6-0.3,2.2-0.9
	c0.4-0.4,0.6-1,0.5-1.5c-0.1-1.4-1.4-1.8-3.3-2.2l-0.3-0.1c-2.9-0.7-3.1-2.1-3.1-2.4c-0.1-0.9,0.1-1.8,0.6-2.5
	c0.7-0.8,1.8-1.2,2.9-1.1c1.1-0.1,2.3,0.3,3.1,1.1c0.5,0.6,0.8,1.4,0.8,2.3h-1c0-0.6-0.2-1.2-0.5-1.7c-0.6-0.6-1.5-0.9-2.4-0.8
	c-0.8-0.1-1.6,0.2-2.1,0.8c-0.4,0.5-0.5,1.2-0.4,1.8v0.1c0,0,0.1,1,2.4,1.5l0.3,0.1c1.7,0.4,4,0.9,4.1,3.1c0.1,0.8-0.2,1.6-0.8,2.2
	c-0.8,0.8-1.8,1.2-2.9,1.2L164.3,51.5z"/>
<path d="M164.3,51.6c-1.1,0.1-2.3-0.3-3.1-1.1c-0.8-0.8-1.2-1.9-1.2-3v-0.1h1.2v0.1c-0.1,1.6,1.1,3,2.7,3.1c0.2,0,0.5,0,0.7-0.1
	c0.8,0,1.6-0.3,2.1-0.9c0.4-0.4,0.5-0.9,0.5-1.5c-0.1-1.3-1.4-1.7-3.3-2.1l-0.3-0.1c-3-0.7-3.2-2.2-3.2-2.5
	c-0.2-0.9,0.1-1.9,0.6-2.6c0.8-0.8,1.9-1.3,3-1.2c1.2-0.1,2.3,0.3,3.2,1.2c0.6,0.7,0.8,1.5,0.8,2.4v0.1h-1.2v-0.1
	c0-0.6-0.1-1.1-0.5-1.6c-0.6-0.6-1.4-0.8-2.3-0.8c-0.8-0.1-1.5,0.2-2.1,0.7c-0.3,0.5-0.5,1.1-0.4,1.7v0.1c0,0,0.2,1,2.3,1.5l0.3,0.1
	c1.7,0.4,4,0.9,4.2,3.2c0.1,0.8-0.2,1.7-0.8,2.3c-0.8,0.8-1.8,1.2-2.9,1.3L164.3,51.6z M160.2,47.6c0,2.1,1.7,3.9,3.8,3.9
	c0.2,0,0.5,0,0.7-0.1c1.1,0,2.1-0.4,2.8-1.2c0.5-0.6,0.8-1.4,0.7-2.2c-0.1-2.2-2.4-2.7-4-3l-0.3-0.1c-2-0.5-2.4-1.3-2.5-1.5v-0.2
	c-0.1-0.7,0-1.3,0.4-1.9c0.6-0.6,1.4-0.9,2.2-0.8c0.9-0.1,1.8,0.2,2.4,0.8c0.4,0.5,0.6,1,0.6,1.6h0.8c0-0.8-0.2-1.5-0.7-2.1
	c-0.8-0.8-1.9-1.2-3-1.1c-1.1-0.1-2.1,0.3-2.8,1.1c-0.5,0.7-0.7,1.6-0.6,2.5c0,0.3,0.3,1.7,3.1,2.3l0.3,0.1c2,0.4,3.3,0.9,3.4,2.3
	c0.1,0.6-0.1,1.2-0.5,1.6c-0.6,0.6-1.4,0.9-2.3,1c-1,0.1-2-0.2-2.7-0.8c-0.6-0.6-0.9-1.4-0.9-2.3L160.2,47.6z M142,15.1v-1
	c0-0.4-0.1-0.7-0.1-1.1c-0.1-0.8-0.4-1.5-0.8-2.2c-0.4-0.7-0.9-1.2-1.5-1.7c-0.6-0.5-1.4-0.8-2.2-1c-0.8-0.1-1.5-0.1-2.3,0
	c-1.3,0.2-2.5,0.8-3.3,1.8c-0.3,0.4-0.6,0.8-0.9,1.3V8.5h-2.1v18.3h2.1V14.9c0-0.4,0.1-0.7,0.2-1.1c0.4-1.7,1.7-3,3.3-3.6
	c0.9-0.3,1.8-0.3,2.6-0.1c0.5,0.1,0.9,0.3,1.3,0.6c0.4,0.3,0.7,0.7,1,1.2c0.3,0.4,0.5,0.9,0.6,1.4c0,0.3,0.1,0.6,0.1,0.8V19
	l-0.1,7.8h2.1L142,19C142.1,17.7,142.1,16.4,142,15.1z M108.9,44v-0.6c0-0.2,0-0.4-0.1-0.7c-0.1-0.5-0.3-0.9-0.6-1.3
	c-0.3-0.4-0.6-0.7-1-1c-0.4-0.3-0.9-0.5-1.5-0.6c-0.5-0.1-1-0.1-1.5,0c-0.9,0.1-1.6,0.5-2.2,1.1c-0.2,0.2-0.4,0.5-0.6,0.8V40H100
	v11.1h1.4v-7.2c0-0.2,0-0.4,0.1-0.7c0.3-1.1,1.1-1.9,2.2-2.2c0.6-0.2,1.2-0.2,1.8,0c0.3,0.1,0.6,0.2,0.9,0.4
	c0.3,0.2,0.5,0.4,0.7,0.7c0.2,0.3,0.3,0.6,0.4,0.9c0,0.2,0,0.3,0,0.5v7.6h1.4l0.1-4.7C108.9,45.6,108.9,44.8,108.9,44L108.9,44z
	 M144.2,39.9c-1.2,0.4-2.2,1.3-2.8,2.3l-0.1,0.2V40H140v11.1h1.3v-5.3c0-0.8,0.1-1.6,0.4-2.4c0,0,0.3-0.5,0.4-0.7
	c0.4-0.5,0.9-1,1.5-1.3c0.6-0.2,1.3-0.3,1.9-0.3v-1.5C145.1,39.7,144.6,39.7,144.2,39.9z M146.8,40h1.3v11.1h-1.3V40z M146.8,35.9
	h1.3v2h-1.3V35.9z M179.5,46c0-0.3,0-0.6,0-0.9c0-0.3,0-0.6-0.1-0.9c-0.1-0.7-0.3-1.4-0.6-2c-0.7-1.5-2.2-2.5-3.9-2.5h-0.3
	c-3.3,0-4.7,2.2-4.9,5.3v0.4c-0.1,1.6,0.4,3.3,1.4,4.6c1,1,2.3,1.5,3.6,1.4c0.4,0,0.7-0.1,1.1-0.2c1.1-0.3,2.1-1.1,2.7-2.2
	c0.4-0.6,0.7-1.2,0.9-1.9h-1.4c0,0.2-0.1,0.4-0.1,0.5c-0.1,0.2-0.1,0.4-0.2,0.5c-0.2,0.4-0.4,0.7-0.6,1c-0.5,0.6-1.2,0.9-2,1
	c-1.1,0.2-2.2-0.2-3.1-0.9c-0.8-0.9-1.1-2-1-3.2L179.5,46z M172.4,41.7c0.6-0.6,1.4-1,2.3-1c3,0,3.4,2.9,3.5,4h-7.1
	C171.2,43.6,171.6,42.5,172.4,41.7L172.4,41.7z M189.9,44v-0.6c0-0.2,0-0.4-0.1-0.7c-0.1-0.5-0.3-0.9-0.6-1.3c-0.3-0.4-0.6-0.7-1-1
	c-0.4-0.3-0.9-0.5-1.5-0.6c-0.5-0.1-1-0.1-1.5,0c-0.9,0.1-1.6,0.5-2.2,1.1c-0.2,0.2-0.4,0.5-0.6,0.8V40h-1.4v11.1h1.4v-7.2
	c0-0.2,0-0.4,0.1-0.7c0.3-1.1,1.1-1.9,2.2-2.2c0.6-0.2,1.2-0.2,1.8,0c0.3,0.1,0.6,0.2,0.9,0.4c0.3,0.2,0.5,0.4,0.7,0.7
	c0.2,0.3,0.3,0.6,0.4,0.9c0,0.2,0,0.3,0,0.5v7.6h1.4l0.1-4.7C190,45.6,190,44.8,189.9,44z M-254.7,32h448.6v0.4h-448.6V32z"/>
<path d="M89.9,0h0.4v54h-0.4V0z"/>
</svg>
