<?xml version="1.0" encoding="utf-8"?>
<!-- Generator: Adobe Illustrator 18.1.0, SVG Export Plug-In . SVG Version: 6.00 Build 0), Wouter Brinkman voor Algebeld.nl  -->
<svg version="1.1" id="Layer_2" xmlns="http://www.w3.org/2000/svg" xmlns:xlink="http://www.w3.org/1999/xlink" x="0px" y="0px"
	 viewBox="0 0 124.7 93.5" enable-background="new 0 0 124.7 93.5" xml:space="preserve">
<g>
	<defs>
		<rect id="SVGID_1_" x="0" y="9.2" width="124.7" height="75.1"/>
	</defs>
	<clipPath id="SVGID_2_">
		<use xlink:href="#SVGID_1_"  overflow="visible"/>
	</clipPath>
	<path clip-path="url(#SVGID_2_)" fill="#104593" d="M75.4,9.2c-14.3,0-26.8,8-33.1,19.8c-4.4-5.1-10.9-8.4-18.2-8.4
		c-13.3,0-24,10.8-24,24c0,13.3,10.8,24,24,24c6.6,0,12.6-2.7,16.9-7c5.8,13.3,19,22.5,34.4,22.5c20.7,0,37.6-16.8,37.6-37.6
		C112.9,26,96.1,9.2,75.4,9.2"/>
	<path clip-path="url(#SVGID_2_)" fill="#104593" d="M120.9,50.2c-2.1,0-3.8,1.7-3.8,3.8c0,2.1,1.7,3.8,3.8,3.8
		c2.1,0,3.8-1.7,3.8-3.8C124.7,51.9,123,50.2,120.9,50.2"/>
	<path clip-path="url(#SVGID_2_)" fill="#FFFFFF" d="M24.2,36.2c1.2,0,2.1-1,2.1-2.1c0-1.2-1-2.1-2.1-2.1H8.6c-1.2,0-2.1,1-2.1,2.1
		c0,1.2,0.9,2.1,2.1,2.1H14v19.1c0,1.3,1.1,2.4,2.4,2.4c1.3,0,2.4-1.1,2.4-2.4V36.2H24.2z"/>
	<path clip-path="url(#SVGID_2_)" fill="#FFFFFF" d="M89.3,39.6c-1.2-0.7-2.5-0.7-4.5-0.7h-2.1c-1.3,0-2.4,1.1-2.4,2.4v14
		c0,1.3,1.1,2.4,2.4,2.4c1.3,0,2.4-1.1,2.4-2.4V43.2H86c1.1,0,1.5,0.4,2.1,1.2c0.4,0.5,1,0.9,1.6,0.9c1.5,0,2.1-1.1,1.9-2.5
		C91.5,41.6,90.6,40.4,89.3,39.6"/>
	<path clip-path="url(#SVGID_2_)" fill="#FFFFFF" d="M107,52.4c-0.9-0.8-1.8-0.6-2.6,0c-0.8,0.6-1.3,1.2-2.3,1.2
		c-1.2,0-1.9-0.9-1.9-2.4v-8h4.1c1.2,0,2.1-0.9,2.1-2.1c0-1.2-0.9-2.1-2.1-2.1h-4.1v-3.6c0-1.3-1.1-2.4-2.4-2.4
		c-1.3,0-2.4,1.1-2.4,2.4V39h-0.6c-1.2,0-2.1,0.9-2.1,2.1c0,1.2,0.9,2.1,2.1,2.1h0.6v8.3c0,3,1.2,6.4,6,6.4c2.9,0,4.6-1.3,5.6-2.7
		C107.7,54.2,107.8,53.1,107,52.4"/>
	<path clip-path="url(#SVGID_2_)" fill="#FFFFFF" d="M38.4,47c0-3.9-2.5-8.1-7.6-8.1c-4.8,0-8.3,4-8.3,9.6c0,5.5,3.2,9.5,8.8,9.5
		c3,0,4.9-1.4,5.5-2.1c0.9-0.9,1.1-1.9,0.5-2.6c-0.7-0.9-1.9-0.8-2.8-0.3c-0.7,0.4-1.3,0.9-3.1,0.9c-2.4,0-3.8-1.5-4.2-3.4H35
		C37,50.4,38.4,49.3,38.4,47 M33.1,47h-6c0.1-2.3,1.8-4.1,3.8-4.1c2.2,0,3.2,1.4,3.3,3.1C34.2,46.6,33.9,47,33.1,47"/>
	<path clip-path="url(#SVGID_2_)" fill="#FFFFFF" d="M69.1,38.9c-0.1,0-0.1,0-0.2,0c0,0-0.1,0-0.1,0H56.5v-1.4c0-0.5,0.2-1,0.7-1.1
		c0.7-0.2,2-0.4,3-0.7c0.7-0.2,1-0.8,1-1.7c0-1.8-1.2-2.3-2.8-2.3c-2,0-4.1,0.3-5.7,2.4c-1,1.3-1,2.3-1,4.5v0.3h-1.2
		c-1.2,0-2.1,1-2.1,2.1c0,1.2,1,2.1,2.1,2.1h1.2v12.1c0,1.3,1.1,2.4,2.4,2.4c1.3,0,2.4-1.1,2.4-2.4V43.2H62
		c-0.8,1.5-1.2,3.3-1.2,5.3c0,5.6,3.3,9.5,8.4,9.5c5.1,0,8.4-4.1,8.4-9.5C77.6,42.9,74.3,38.9,69.1,38.9 M69.2,53.9
		c-2.5,0-4.1-2.2-4.1-5.4c0-3.2,1.6-5.4,4.1-5.4c2.5,0,4.1,2.3,4.1,5.4C73.3,51.5,71.7,53.9,69.2,53.9"/>
	<path clip-path="url(#SVGID_2_)" fill="#FFFFFF" d="M47.6,54c-0.9-0.6-1.3-1-1.3-2.1l0-17.6c0-1.3-1.1-2.4-2.4-2.4
		c-1.3,0-2.4,1.1-2.4,2.4l0,16.5c0,2.2-0.1,4.1,0.9,5.4c1,1.3,2.3,1.7,3.3,1.7c1.6,0,2.8-0.4,2.8-2.3C48.5,55.1,48.1,54.4,47.6,54"
		/>
</g>
</svg>
